<svg width="269" height="76" viewBox="0 0 269 76" fill="none" xmlns="http://www.w3.org/2000/svg">
<g clip-path="url(#clip0_46_802)">
<path d="M67.2953 18.7921V56.4125L44.8665 68.9499V56.4125L56.0764 50.1407V37.6012L44.8665 43.8731V31.3294L67.2953 18.7921Z" fill="#2CA3DC"/>
<path d="M50.4714 21.928L61.6836 15.6561L33.6785 0L5.60498 15.6561L16.8238 21.928L33.6476 12.5202L50.4714 21.928Z" fill="#858789"/>
<path d="M33.6476 31.3294L39.2659 28.1892L33.6476 18.7921V31.3294Z" fill="#CACED1"/>
<path d="M33.6476 18.7921V21.928H35.5233L33.6476 18.7921Z" fill="#5D6469"/>
<path d="M0 18.7921V56.4125L22.4288 68.9499V56.4125L11.2188 50.1407V37.6012L22.4288 43.8731V31.3294L0 18.7921Z" fill="#1C4BA0"/>
<path d="M33.6476 31.3294L28.0228 28.1892L33.6476 18.7921V31.3294Z" fill="#858789"/>
<path d="M33.6476 18.7921V21.928H31.7719L33.6476 18.7921Z" fill="#010101"/>
<path d="M28.0228 53.2809V72.0794L33.6476 75.2217V50.1407L28.0228 53.2809Z" fill="#1C4BA0"/>
<path d="M33.6476 37.6012V31.3294L28.0228 28.1892V40.7436L33.6476 37.6012Z" fill="#1C4BA0"/>
<path d="M33.6476 50.1407V75.2217L39.2659 72.0794V46.9983L33.6476 50.1407Z" fill="#2CA3DC"/>
<path d="M39.2659 34.461V28.1892L33.6476 31.3294V37.6012L39.2659 34.461Z" fill="#2CA3DC"/>
<path d="M89.4081 39.3489H83.9534V22.2467H89.4015L89.4081 39.3489Z" fill="#1C4BA0"/>
<path d="M139.261 22.2467L135.726 26.6896H129.419V39.3382H123.968V26.7003H115.67L119.205 22.2574L139.261 22.2467Z" fill="#1C4BA0"/>
<path d="M161.5 34.953L157.989 39.3489H141.004V22.2467H161.449L157.914 26.6896H146.496V28.7346H160.481L157.34 32.6214H146.496V34.9744L161.5 34.953Z" fill="#1C4BA0"/>
<path d="M214.474 28.664C214.478 29.5631 214.268 30.4509 213.86 31.2588C213.466 32.0423 212.883 32.7219 212.159 33.2396C211.336 33.823 210.411 34.2578 209.428 34.5231C208.234 34.8464 206.998 35.002 205.759 34.9851H196.561V39.351H191.104V30.6085H206.307C207.007 30.6502 207.701 30.4601 208.275 30.0694C208.5 29.9008 208.68 29.6834 208.802 29.4349C208.924 29.1863 208.984 28.9135 208.978 28.6384C208.986 28.3648 208.927 28.0932 208.805 27.8465C208.682 27.5997 208.501 27.3849 208.275 27.2201C207.697 26.8398 207.004 26.6562 206.307 26.6982H191.104L194.745 22.2467H205.829C207.07 22.2301 208.306 22.3901 209.499 22.7216C210.482 22.994 211.403 23.4416 212.216 24.0414C212.934 24.5773 213.513 25.268 213.907 26.0586C214.296 26.8745 214.49 27.7652 214.474 28.664Z" fill="#2CA3DC"/>
<path d="M241.697 39.3361H234.391L230.463 34.8439H222.09V39.3596H216.642V30.6085H232.001C232.748 30.6329 233.487 30.4567 234.137 30.0994C234.403 29.9656 234.625 29.7633 234.779 29.5148C234.933 29.2664 235.013 28.9816 235.01 28.6919C235.027 28.3965 234.963 28.1021 234.823 27.8389C234.684 27.5758 234.474 27.3533 234.217 27.1945C233.544 26.8283 232.778 26.6554 232.007 26.6961H216.631L220.196 22.2467H231.535C232.577 22.2509 233.618 22.3411 234.645 22.5162C235.669 22.6784 236.659 23.0014 237.575 23.4724C238.441 23.9203 239.187 24.5584 239.753 25.3356C240.358 26.2279 240.658 27.2812 240.613 28.3475C240.616 28.9888 240.511 29.6264 240.299 30.2341C239.892 31.4241 239.055 32.4315 237.942 33.0706C237.399 33.3485 236.837 33.5873 236.258 33.7851L241.697 39.3361Z" fill="#2CA3DC"/>
<path d="M255.616 21.9751C259.911 21.9751 263.139 22.6824 265.301 24.0971C267.464 25.5117 268.541 27.7428 268.534 30.7903C268.534 33.8578 267.46 36.0967 265.312 37.5071C263.165 38.9175 259.933 39.6248 255.616 39.6291C251.29 39.6291 248.062 38.9218 245.93 37.5071C243.799 36.0925 242.73 33.8535 242.722 30.7903C242.722 27.7428 243.796 25.5117 245.944 24.0971C248.091 22.6824 251.315 21.9751 255.616 21.9751ZM255.616 35.1862C256.779 35.1972 257.941 35.1422 259.098 35.0215C259.902 34.9554 260.686 34.7374 261.404 34.3797C261.97 34.0794 262.419 33.6075 262.681 33.0364C263.21 31.5893 263.21 30.0106 262.681 28.5635C262.42 27.9948 261.971 27.5265 261.404 27.233C260.684 26.8794 259.902 26.6616 259.098 26.5912C256.781 26.369 254.447 26.369 252.13 26.5912C251.333 26.659 250.556 26.8716 249.841 27.218C249.274 27.5116 248.825 27.9798 248.564 28.5485C248.035 29.9956 248.035 31.5743 248.564 33.0214C248.825 33.5941 249.274 34.0676 249.841 34.369C250.559 34.7267 251.343 34.9447 252.147 35.0108C253.299 35.131 254.457 35.186 255.616 35.1755V35.1862Z" fill="#2CA3DC"/>
<path d="M107.569 48.1299V53.8863H106.546V49.0027H103.837V53.8863H102.849V48.1299H107.569Z" fill="#858789"/>
<path d="M110.717 53.8863V48.1299H113.18C113.463 48.1145 113.747 48.1551 114.013 48.2493C114.279 48.3435 114.523 48.4893 114.729 48.6779C114.935 48.8664 115.099 49.0937 115.211 49.3457C115.323 49.5978 115.381 49.8694 115.381 50.1439C115.381 50.4184 115.323 50.69 115.211 50.942C115.099 51.1941 114.935 51.4214 114.729 51.6099C114.523 51.7984 114.279 51.9443 114.013 52.0385C113.747 52.1327 113.463 52.1733 113.18 52.1579H111.709V53.882L110.717 53.8863ZM113.18 51.3193C113.332 51.3179 113.482 51.2876 113.622 51.2301C113.761 51.1726 113.888 51.089 113.994 50.9841C114.1 50.8792 114.184 50.7551 114.241 50.6188C114.298 50.4826 114.326 50.3368 114.325 50.1899C114.325 50.1756 114.325 50.1614 114.325 50.1471C114.334 50.0027 114.314 49.8579 114.266 49.721C114.218 49.584 114.142 49.4576 114.044 49.3489C113.945 49.2403 113.825 49.1515 113.691 49.0877C113.557 49.0239 113.411 48.9863 113.262 48.977H111.691V51.33L113.18 51.3193Z" fill="#858789"/>
<path d="M120.614 53.9847C120.006 53.9939 119.409 53.8283 118.898 53.5089C118.387 53.1895 117.985 52.7305 117.744 52.19C117.502 51.6496 117.432 51.0519 117.541 50.4726C117.65 49.8933 117.934 49.3584 118.358 48.9354C118.781 48.5125 119.324 48.2206 119.919 48.0965C120.513 47.9725 121.132 48.022 121.698 48.2387C122.263 48.4554 122.75 48.8296 123.096 49.314C123.442 49.7983 123.632 50.3712 123.641 50.96C123.641 50.9757 123.641 50.9913 123.641 51.007C123.683 51.7553 123.417 52.4892 122.9 53.0472C122.384 53.6052 121.659 53.9417 120.886 53.9825C120.796 53.9882 120.706 53.9889 120.614 53.9847ZM120.614 53.082C121.039 53.1054 121.461 53.0065 121.828 52.7976C122.194 52.5887 122.488 52.2792 122.673 51.9084C122.858 51.5376 122.925 51.122 122.866 50.7143C122.807 50.3065 122.624 49.925 122.341 49.6178C122.057 49.3107 121.686 49.0918 121.275 48.9888C120.863 48.8858 120.429 48.9034 120.028 49.0393C119.626 49.1752 119.275 49.4233 119.02 49.7522C118.764 50.0812 118.615 50.4762 118.591 50.8872C118.591 50.9286 118.591 50.9707 118.591 51.0134C118.571 51.2825 118.609 51.5526 118.703 51.8063C118.798 52.0601 118.946 52.2918 119.139 52.4864C119.332 52.681 119.565 52.8342 119.823 52.9361C120.081 53.038 120.358 53.0862 120.637 53.0777L120.614 53.082Z" fill="#858789"/>
<path d="M127.477 48.9856V53.8927H126.485V48.1299H130.019V48.9749L127.477 48.9856Z" fill="#858789"/>
<path d="M132.589 53.8863V48.1299H135.054C135.337 48.1145 135.621 48.1551 135.887 48.2493C136.153 48.3435 136.397 48.4893 136.603 48.6779C136.809 48.8664 136.973 49.0937 137.085 49.3457C137.197 49.5978 137.255 49.8694 137.255 50.1439C137.255 50.4184 137.197 50.69 137.085 50.942C136.973 51.1941 136.809 51.4214 136.603 51.6099C136.397 51.7984 136.153 51.9443 135.887 52.0385C135.621 52.1327 135.337 52.1733 135.054 52.1579H133.601V53.882L132.589 53.8863ZM135.052 51.3193C135.204 51.3179 135.354 51.2876 135.494 51.2301C135.633 51.1726 135.76 51.089 135.866 50.9841C135.972 50.8792 136.056 50.7551 136.113 50.6188C136.17 50.4826 136.198 50.3368 136.197 50.1899C136.197 50.1756 136.197 50.1614 136.197 50.1471C136.206 50.0027 136.186 49.8579 136.138 49.721C136.09 49.584 136.014 49.4576 135.916 49.3489C135.817 49.2403 135.697 49.1515 135.563 49.0877C135.429 49.0239 135.283 48.9863 135.134 48.977H133.57V51.33L135.052 51.3193Z" fill="#858789"/>
<path d="M140.321 52.6905L139.716 53.8627H138.704V53.7387L141.47 48.0871H141.93L144.667 53.7622V53.8863H143.638L143.032 52.714L140.321 52.6905ZM140.642 51.8883H142.721L141.685 49.5845L140.642 51.8883Z" fill="#858789"/>
<path d="M152.302 48.1128H152.663V53.8884H151.671V50.2797L149.945 52.4188H149.813L148.087 50.2904V53.8884H147.1V48.1299H147.462L149.892 51.1076L152.302 48.1128Z" fill="#858789"/>
<path d="M161.038 48.1128H161.4V53.8884H160.408V50.2797L158.696 52.4188H158.564L156.838 50.2904V53.8884H155.844V48.1299H156.197L158.628 51.1076L161.038 48.1128Z" fill="#858789"/>
<path d="M164.918 53.8905H164.58V48.1299H165.567V50.2284L165.501 51.9867L169.133 48.1171H169.491V53.8927H168.517V51.8049L168.583 49.9824L164.918 53.8905Z" fill="#858789"/>
<path d="M172.637 53.8863V48.1299H175.1C175.383 48.1145 175.667 48.1551 175.933 48.2493C176.199 48.3435 176.443 48.4893 176.649 48.6779C176.855 48.8664 177.019 49.0937 177.131 49.3457C177.243 49.5978 177.301 49.8694 177.301 50.1439C177.301 50.4184 177.243 50.69 177.131 50.942C177.019 51.1941 176.855 51.4214 176.649 51.6099C176.443 51.7984 176.199 51.9443 175.933 52.0385C175.667 52.1327 175.383 52.1733 175.1 52.1579H173.629V53.882L172.637 53.8863ZM175.1 51.3193C175.252 51.3179 175.402 51.2876 175.542 51.2301C175.681 51.1726 175.808 51.089 175.914 50.9841C176.02 50.8792 176.104 50.7551 176.161 50.6188C176.218 50.4826 176.246 50.3368 176.245 50.1899C176.245 50.1756 176.245 50.1614 176.245 50.1471C176.254 50.0027 176.234 49.8579 176.186 49.721C176.138 49.584 176.062 49.4576 175.964 49.3489C175.865 49.2403 175.745 49.1515 175.611 49.0877C175.477 49.0239 175.331 48.9863 175.182 48.977H173.618V51.33L175.1 51.3193Z" fill="#858789"/>
<path d="M181.324 51.9696L179.174 48.2476V48.1299H180.257L181.825 50.9963H181.861L183.277 48.1299H184.331V48.2305L181.989 52.7611C181.523 53.7579 180.917 54.3141 179.623 53.8306L179.755 53.0798C179.867 53.1488 179.994 53.191 180.126 53.2031C180.257 53.2152 180.39 53.1968 180.513 53.1493C180.636 53.1019 180.746 53.0268 180.833 52.9303C180.92 52.8338 180.982 52.7186 181.014 52.5942L181.324 51.9696Z" fill="#858789"/>
<path d="M187.203 53.8905H186.876V48.1299H187.863V50.2284L187.79 51.9803L191.423 48.1107H191.714V53.8863H190.74V51.7985L190.806 49.976L187.203 53.8905ZM188.086 46.4336C188.092 46.6031 188.131 46.77 188.203 46.9245C188.276 47.079 188.379 47.2182 188.507 47.334C188.635 47.4497 188.785 47.5398 188.949 47.5989C189.113 47.6581 189.288 47.6852 189.463 47.6786H189.523C189.863 47.7064 190.201 47.6022 190.463 47.3889C190.724 47.1755 190.887 46.8704 190.917 46.5406C190.917 46.5063 190.917 46.4714 190.917 46.4358L190.28 46.3716C190.214 46.7652 189.898 46.9042 189.505 46.9042C189.112 46.9042 188.816 46.7352 188.767 46.3716L188.086 46.4336Z" fill="#858789"/>
<path d="M199.721 50.3396H201.199C202.608 50.3396 203.286 51.1012 203.286 52.098C203.286 53.0948 202.593 53.9055 201.205 53.9055H198.753V48.1406H202.814V48.9856H199.721V50.3396ZM199.721 51.1418V53.0349H201.199C201.339 53.0543 201.481 53.0443 201.617 53.0056C201.753 52.967 201.879 52.9005 201.985 52.8107C202.092 52.721 202.178 52.61 202.237 52.4854C202.296 52.3608 202.326 52.2254 202.326 52.0883C202.326 51.9513 202.296 51.8159 202.237 51.6913C202.178 51.5667 202.092 51.4557 201.985 51.366C201.879 51.2762 201.753 51.2097 201.617 51.1711C201.481 51.1324 201.339 51.1224 201.199 51.1418H199.721Z" fill="#858789"/>
<path d="M207.537 51.9696L205.381 48.2476V48.1299H206.463L208.032 50.9963H208.063L209.479 48.1299H210.533V48.2305L208.191 52.7611C207.725 53.7579 207.12 54.3141 205.825 53.8306L205.957 53.0798C206.069 53.1488 206.196 53.191 206.328 53.2031C206.46 53.2152 206.593 53.1968 206.716 53.1493C206.839 53.1019 206.948 53.0268 207.035 52.9303C207.122 52.8338 207.185 52.7186 207.217 52.5942L207.537 51.9696Z" fill="#858789"/>
<path d="M212.678 54.7612H211.872V53.0798H212.477L214.609 48.0807H215.027L217.236 53.0798H217.883V54.7612H217.084V53.882H212.665L212.678 54.7612ZM213.482 53.0606H216.244L214.832 49.6701L213.482 53.0606Z" fill="#858789"/>
<path d="M221.928 51.9696L219.772 48.2476V48.1299H220.855L222.423 50.9963H222.459L223.875 48.1299H224.929V48.2305L222.591 52.7611C222.125 53.7579 221.52 54.3141 220.225 53.8306L220.358 53.0798C220.469 53.1488 220.596 53.191 220.728 53.2031C220.86 53.2152 220.993 53.1968 221.116 53.1493C221.239 53.1019 221.348 53.0268 221.436 52.9303C221.523 52.8338 221.585 52.7186 221.617 52.5942L221.928 51.9696Z" fill="#858789"/>
<path d="M227.436 48.1299H228.428V53.0071H230.536V48.1299H231.523V53.0071H233.66V48.1299H234.647V53.0499H235.361V54.7034H234.477V53.882H227.436V48.1299Z" fill="#858789"/>
<path d="M241.741 48.9685H239.119V50.4829H241.596V51.3386H239.119V53.0156H241.795V53.8884H238.125V48.1299H241.757L241.741 48.9685Z" fill="#858789"/>
<path d="M248.341 48.9685H245.718V50.4829H248.195V51.3386H245.718V53.0156H248.394V53.8884H244.724V48.1299H248.356L248.341 48.9685Z" fill="#858789"/>
<path d="M109.005 22.2467V32.3005L98.1791 22.9227L97.3439 22.236H93.0402V39.3489H97.9979V29.3058L108.823 38.6836L109.557 39.3104H114V22.2467H109.005Z" fill="#1C4BA0"/>
<path d="M175.5 27.0105L168.368 20.4392H160.802L168.326 27.1667C169.013 27.7956 169.584 28.3111 170.039 28.7132L171.17 29.7101C171.401 29.9226 171.647 30.1185 171.908 30.2962L172.434 30.6941L171.895 31.1048C171.693 31.2574 171.442 31.4527 171.143 31.6909L170.012 32.6749L168.322 34.1723L160.457 41.2848H167.244L175.52 33.6995L175.5 27.0105Z" fill="#1C4BA0"/>
<path d="M175.482 27.0105L182.638 20.4392H190.221L182.638 27.1667C181.952 27.7956 181.381 28.3111 180.926 28.7132L179.795 29.7101C179.564 29.9226 179.317 30.1185 179.057 30.2962L178.531 30.6941L179.07 31.1048C179.272 31.2574 179.522 31.4527 179.821 31.6909L180.953 32.6749L182.643 34.1723L190.508 41.2848H183.728L175.451 33.6995L175.482 27.0105Z" fill="#2CA3DC"/>
</g>
<defs>
<clipPath id="clip0_46_802">
<rect width="268.531" height="75.2217" fill="white"/>
</clipPath>
</defs>
</svg>
